# xmcd
#
# Track frame offsets: 
#        150
#        17777
#        32925
#        47097
#        62067
#        79895
#        104335
#        124854
#        142235
#        154712
#        166320
#        178695
#
# Disc length: 2652 seconds
#
# Revision: 3
# Processed by: cddbd v1.5.2PL0 Copyright (c) Steve Scherf et al.
# Submitted via: ExactAudioCopyFreeDBPlugin 1.0
#
DISCID=a60a5a0c
DTITLE=Various Artist - The Best of Blues:  A Christmas Collection (2
DTITLE=0th Century Masters)
DYEAR=2003
DGENRE=Holidays
TTITLE0=B.B. King - Merry Christmas Baby
TTITLE1=Eddie C. Campbell - Santa's Messin' with the Kid
TTITLE2=Keb' Mo' - Jingle Bell Jamboree
TTITLE3=Charles Brown - Please Come Home for Christmas
TTITLE4=Michele "Evil Gal" Willson - Five Pound Box of Money
TTITLE5=Billy Boy Arnold - Christmas Time, Part 1 (ft The Duke Robilla
TTITLE5=rd Band)
TTITLE6=William Clarke - Please Let Me Be Your Santa Claus
TTITLE7=Albert King - Santa Claus Wants Some Lovin'
TTITLE8=Freddy King - Christmas Tears
TTITLE9=Canned Heat - Christmas Blues
TTITLE10=Sonny Boy Williamson - Santa Claus
TTITLE11=Koko Taylor - Merry, Merry Christmas
EXTD=
EXTT0=
EXTT1=Eddie C. Campbell
EXTT2=Keb' Mo'
EXTT3=Charles Brown
EXTT4=Michelle "Evil Gal" Willson
EXTT5=Bill Boy Arnold (with the Duke Robillard Band)
EXTT6=Willaim Clarke
EXTT7=Albert King
EXTT8=Freddy King
EXTT9=Canned Heat
EXTT10=Sonny Boy Williamson
EXTT11=Koko Taylor
PLAYORDER=
